<?xml version="1.0" encoding="UTF-8" standalone="no"?>
<svg
   xmlns:dc="http://purl.org/dc/elements/1.1/"
   xmlns:cc="http://creativecommons.org/ns#"
   xmlns:rdf="http://www.w3.org/1999/02/22-rdf-syntax-ns#"
   xmlns:svg="http://www.w3.org/2000/svg"
   xmlns="http://www.w3.org/2000/svg"
   xmlns:sodipodi="http://sodipodi.sourceforge.net/DTD/sodipodi-0.dtd"
   xmlns:inkscape="http://www.inkscape.org/namespaces/inkscape"
   version="1.1"
   width="140.6787"
   height="153.06837"
   viewBox="0 0 140.6787 153.06838"
   preserveAspectRatio="none"
   id="svg6"
   sodipodi:docname="logo.svg"
   inkscape:version="0.92.3 (2405546, 2018-03-11)">
  <metadata
     id="metadata12">
    <rdf:RDF>
      <cc:Work
         rdf:about="">
        <dc:format>image/svg+xml</dc:format>
        <dc:type
           rdf:resource="http://purl.org/dc/dcmitype/StillImage" />
        <dc:title></dc:title>
      </cc:Work>
    </rdf:RDF>
  </metadata>
  <defs
     id="defs10" />
  <sodipodi:namedview
     pagecolor="#ffffff"
     bordercolor="#666666"
     borderopacity="1"
     objecttolerance="10"
     gridtolerance="10"
     guidetolerance="10"
     inkscape:pageopacity="0"
     inkscape:pageshadow="2"
     inkscape:window-width="1600"
     inkscape:window-height="832"
     id="namedview8"
     showgrid="false"
     fit-margin-top="0"
     fit-margin-left="0"
     fit-margin-right="0"
     fit-margin-bottom="0"
     inkscape:zoom="0.36532508"
     inkscape:cx="-372.52942"
     inkscape:cy="234.25755"
     inkscape:window-x="0"
     inkscape:window-y="0"
     inkscape:window-maximized="1"
     inkscape:current-layer="svg6" />
  <path
     style="fill:#000000;stroke-width:1.22581327"
     d="m 85.141324,151.46413 c -2.69678,-0.85648 -7.85408,-3.06313 -11.46065,-4.90365 -7.30541,-3.72814 -9.31587,-3.39181 -5.29696,0.88614 1.46342,1.55774 2.66076,3.17694 2.66076,3.5982 0,1.92272 -12.43039,-3.77916 -21.082749,-9.67074 -5.259417,-3.58127 -9.562579,-6.04165 -9.562579,-5.46752 0,0.57413 0.834829,3.04189 1.855174,5.48392 1.020339,2.44201 1.544565,4.44004 1.164938,4.44004 -2.02904,0 -7.850133,-4.04487 -11.762325,-8.17321 -5.037423,-5.31574 -6.989647,-8.69598 -9.064634,-15.69529 l -1.44327,-4.86838 -1.896561,3.61971 -1.896554,3.61971 -1.478037,-5.48902 c -0.918149,-3.40974 -1.174897,-8.5654 -0.677781,-13.61034 l 0.800262,-8.121342 -5.974422,-4.2922 c -9.51190925,-6.83362 -12.7447702,-16.81838 -7.5738852,-23.39208 3.021393,-3.84108 9.9375052,-5.43193 15.1164382,-3.4771 2.01789,0.76167 3.802463,1.25127 3.965726,1.08801 0.163269,-0.16327 -0.470501,-3.87708 -1.408368,-8.25293 -3.33148,-15.54379 -1.484689,-29.66851 4.886828,-37.3756 l 3.040171,-3.67744 0.04407,3.09824 c 0.04478,3.14699 3.081423,8.54699 4.806319,8.54699 1.145007,0 3.81847,-11.10284 3.81847,-15.858032 0,-1.87708 -1.379045,-5.4449907 -3.064542,-7.9287107 -1.685485,-2.483707 -3.064529,-4.82978195 -3.064529,-5.21348795 0,-1.304783 11.623368,0.99955795 17.06374,3.38289595 2.980179,1.305561 7.80682,4.330795 10.72586,6.7227337 l 5.30736,4.348975 v -3.594191 c 0,-1.9768127 -1.10323,-4.9967317 -2.45163,-6.7109407 -3.29966,-4.19484195 -3.11981,-4.63480895 1.53227,-3.74826095 5.81262,1.10771795 12.99651,4.91347495 19.52648,10.34440865 3.15484,2.623867 5.95528,4.77066 6.22321,4.77066 0.26793,0 0.24426,-1.654843 -0.0526,-3.677436 -1.03648,-7.0619327 6.06587,-3.5098677 17.348516,8.676436 l 8.13207,8.78339 0.0486,-5.35893 0.0486,-5.35892 5.66017,6.12906 c 3.11308,3.37099 7.3662,9.71457 9.45137,14.09686 3.46181,7.27548 3.79122,9.04383 3.79122,20.35223 0,11.10184 0.20535,12.25611 1.98279,11.14531 5.8064,-3.62864 8.02681,3.94152 2.80785,9.57288 -2.70604,2.91986 -2.97869,3.86379 -1.83872,6.36574 3.31105,7.26699 0.11155,23.780752 -7.55167,38.976462 -3.54231,7.0242 -3.7563,7.21308 -4.86078,4.29034 -1.09844,-2.90669 -1.32375,-2.69498 -4.57392,4.29757 -1.88021,4.04518 -5.42151,9.25585 -7.86954,11.57925 l -4.45098,4.22434 v -3.30499 c 0,-4.06559 -0.37311,-4.08014 -5.44411,-0.21232 -3.375216,2.57442 -4.594056,2.88764 -7.273096,1.86907 -3.55463,-1.35148 -3.81785,-1.01748 -1.94943,2.47372 1.51476,2.83035 0.41299,2.93587 -6.7851,0.64977 z m 19.409216,-20.26129 c 13.82049,-11.44218 21.65553,-23.00295 21.65553,-31.953232 0,-6.00476 -2.41558,-11.08761 -6.97294,-14.67243 -2.79391,-2.1977 -3.10274,-2.97224 -1.87604,-4.70503 7.20465,-10.17709 8.30795,-18.61568 3.22387,-24.65777 -4.10778,-4.88181 -10.89769,-5.12845 -19.60276,-0.71209 -7.993316,4.05528 -11.784606,3.8699 -22.116186,-1.08138 -10.68042,-5.11846 -15.08108,-6.13135 -22.07917,-5.08191 -8.019646,1.20261 -13.932069,6.7612 -13.932069,13.09825 0,5.65909 2.526445,11.17937 7.534383,16.4626 l 3.582486,3.77942 -5.642296,3.56646 c -7.083177,4.47724 -10.377825,9.68849 -10.377825,16.414942 0,7.21852 2.874753,12.54491 10.563276,19.57178 10.511585,9.60699 28.232415,16.96282 41.329985,17.15586 5.48311,0.0808 6.58075,-0.45536 14.709756,-7.18547 z m -8.989796,-9.70248 c 0,-0.6193 1.10323,-1.41448 2.45163,-1.7671 1.34839,-0.35262 2.451626,-0.43635 2.451626,-0.18609 0,0.25025 -1.103236,1.04545 -2.451626,1.76708 -1.35443,0.72487 -2.45163,0.80815 -2.45163,0.18611 z m -14.70976,-3.9261 c 0,-3.8277 7.53243,-6.50207 16.12004,-5.72337 9.696926,0.87929 12.676326,2.80895 4.337016,2.80895 -4.500326,0 -7.905056,0.83305 -11.093546,2.71429 -5.88251,3.47077 -9.36351,3.54518 -9.36351,0.20013 z m 8.05125,-21.724272 c -3.32508,-1.83829 -6.26694,-4.03158 -6.53746,-4.87397 -0.86454,-2.69218 3.36748,-3.14098 8.36557,-0.88716 4.65559,2.09938 5.00487,2.09797 8.96763,-0.0361 4.000626,-2.15447 8.120906,-1.90542 8.120906,0.49086 0,1.1931 -10.434346,8.73008 -12.013136,8.67738 -0.47185,-0.0158 -3.57843,-1.53269 -6.90351,-3.37098 z m -17.09861,-16.25559 c -3.60512,-1.07942 -9.33984,-5.70065 -9.33984,-7.52636 0,-1.48763 7.08812,-1.23253 10.19354,0.36686 3.39756,1.74985 8.19366,6.09039 8.19366,7.41537 0,1.26297 -4.38921,1.13884 -9.04736,-0.25587 z m 29.886186,-0.007 c 0,-2.75043 2.64276,-6.11584 6.27932,-7.99638 4.64953,-2.40436 5.70438,-1.55686 3.06878,2.46556 -2.27825,3.47705 -9.3481,7.65994 -9.3481,5.53082 z m -82.663029,8.02493 c 1.485281,-7.91724 -1.795535,-14.10492 -7.478674,-14.10492 -3.0145602,0 -5.4717362,3.07665 -5.4717362,6.85119 0,2.14211 8.9805482,11.53602 11.0283922,11.53602 0.615261,0 1.480166,-1.92703 1.922018,-4.28229 z"
     id="path25"
     inkscape:connector-curvature="0" />
</svg>
